<svg xmlns="http://www.w3.org/2000/svg" width="1000" height="600" viewBox="0 0 1000 600">
  <rect width="100%" height="100%" fill="#2f3136"/>
  <rect x="20" y="20" width="960" height="560" rx="6" fill="#1f2023" stroke="#3a3d42"/>
  <text x="50%" y="40" fill="#ffffff" font-family="Arial, Helvetica, sans-serif" font-size="22" text-anchor="middle">AutoHub — Database ER Diagram (thumbnail)</text>
  <g transform="translate(40,80) scale(0.45)">
    <rect x="0" y="0" width="900" height="420" rx="4" fill="#2b2b2b" stroke="#555"/>
    <text x="450" y="40" fill="#cfcfcf" font-family="Arial, Helvetica, sans-serif" font-size="22" text-anchor="middle">ER Diagram Preview</text>
    <rect x="30" y="80" width="180" height="90" fill="#3a3a3a" stroke="#666"/>
    <rect x="240" y="80" width="180" height="90" fill="#3a3a3a" stroke="#666"/>
    <rect x="450" y="80" width="180" height="90" fill="#3a3a3a" stroke="#666"/>
    <rect x="660" y="80" width="180" height="90" fill="#3a3a3a" stroke="#666"/>
    <rect x="30" y="220" width="180" height="90" fill="#3a3a3a" stroke="#666"/>
    <rect x="240" y="220" width="180" height="90" fill="#3a3a3a" stroke="#666"/>
    <rect x="450" y="220" width="180" height="90" fill="#3a3a3a" stroke="#666"/>
    <rect x="660" y="220" width="180" height="90" fill="#3a3a3a" stroke="#666"/>
    <line x1="120" y1="170" x2="240" y2="170" stroke="#888" stroke-width="3"/>
    <line x1="330" y1="170" x2="450" y2="170" stroke="#888" stroke-width="3"/>
    <line x1="540" y1="170" x2="660" y2="170" stroke="#888" stroke-width="3"/>
    <line x1="120" y1="310" x2="240" y2="220" stroke="#888" stroke-width="3"/>
    <text x="90" y="135" fill="#dcdcdc" font-size="14" font-family="Arial">users</text>
    <text x="300" y="135" fill="#dcdcdc" font-size="14" font-family="Arial">profiles</text>
    <text x="510" y="135" fill="#dcdcdc" font-size="14" font-family="Arial">vehicles</text>
    <text x="720" y="135" fill="#dcdcdc" font-size="14" font-family="Arial">listings</text>
  </g>
  <text x="50%" y="580" fill="#9aa0a6" font-family="Arial, Helvetica, sans-serif" font-size="12" text-anchor="middle">Click to open the full-size ER diagram (PDF) in browser</text>
</svg>